<?xml version="1.0" encoding="UTF-8"?> <svg xmlns="http://www.w3.org/2000/svg" xmlns:xlink="http://www.w3.org/1999/xlink" id="Layer_2" viewBox="0 0 33.81 50.61"><defs><style>.cls-1{fill:none;}.cls-2{clip-path:url(#clippath);}.cls-3{fill:#fff;}</style><clipPath id="clippath"><rect class="cls-1" width="33.81" height="50.61"></rect></clipPath></defs><g id="Layer_1-2"><g class="cls-2"><g><path class="cls-1" d="M32.3,47.78c-.03,.12-.06,.24-.08,.37-.28,1.26-1.33,2.2-2.61,2.34-.17,.02-.35,.03-.53,.03H3.86c-1.52,.02-2.82-1.08-3.06-2.58-.02-.18-.03-.35-.03-.53V3.93c-.03-1.57,1.14-2.91,2.7-3.1,.05,0,.09-.02,.14-.04H29.47s.1,.04,.15,.05c1.27,.16,2.3,1.1,2.58,2.34,.03,.12,.05,.24,.08,.37V47.78ZM.95,25.65v21.81c-.01,1.58,1.26,2.87,2.84,2.88,.01,0,.03,0,.04,0H29.21c1.58,0,2.87-1.27,2.88-2.86,0-.02,0-.04,0-.06V3.86c0-1.58-1.28-2.87-2.86-2.88,0,0-.01,0-.02,0H3.86c-1.58-.02-2.88,1.24-2.9,2.82,0,.02,0,.03,0,.05V25.65Z"></path><path class="cls-3" d="M.96,25.64V3.85c0-1.58,1.27-2.86,2.85-2.87,.02,0,.03,0,.05,0H29.2c1.58,0,2.88,1.27,2.88,2.85,0,0,0,.01,0,.02V47.43c.02,1.58-1.26,2.88-2.84,2.9-.02,0-.03,0-.05,0H3.84c-1.58,.01-2.87-1.26-2.88-2.84,0,0,0-.02,0-.03V25.64Zm15.53,15.06H1.9q-.27,0-.27,.27v6.45c0,.24,.02,.48,.08,.71,.28,.95,1.17,1.58,2.15,1.56H29.32c.42-.02,.83-.17,1.17-.44,.56-.41,.89-1.08,.86-1.78v-6.49q0-.28-.29-.28h-14.56Zm.17-38.16s-.06,.07-.08,.1c-.88,1.17-1.75,2.35-2.63,3.53-.52,.68-.83,1.5-.89,2.36-.15,1.65,.62,3.25,2,4.17,1.38,.99,2.78,1.96,4.18,2.95,1.13,.76,1.44,2.29,.68,3.42,0,0,0,0,0,0-.02,.04-.04,.08-.06,.13l.37,.25,.05-.04c1.11-1.49,2.22-2.99,3.32-4.48,.5-.66,.79-1.44,.85-2.26,.18-1.66-.57-3.28-1.95-4.22-1.67-1.2-3.36-2.38-5.04-3.57-.31-.2-.54-.52-.63-.87-.1-.41-.02-.85,.23-1.2l-.39-.27Zm.05,21.52s.05-.04,.07-.07c.6-.81,1.22-1.61,1.8-2.43,.49-.68,.66-1.54,.48-2.35-.16-.85-.65-1.59-1.36-2.07-1.11-.76-2.17-1.53-3.26-2.3-.2-.11-.33-.3-.37-.52,0-.23,.02-.45,.07-.67l-.44-.31-.07,.1c-.58,.79-1.18,1.57-1.75,2.36-.38,.51-.58,1.14-.58,1.78-.03,1.04,.47,2.03,1.32,2.63,1.07,.77,2.15,1.52,3.22,2.28,.55,.37,.63,.65,.39,1.28l.21,.15,.25,.16Zm9.8,9.92l.23-.15c.88-.59,1.11-1.79,.52-2.67-.12-.18-.27-.34-.45-.47-.45-.34-1-.52-1.57-.52-1.35-.02-2.7,0-4.06,0-.19,0-.18,.1-.18,.23v7.59c0,.2,.07,.24,.25,.23h3.44c.4,0,.8-.03,1.2-.08,.44-.05,.86-.2,1.23-.43,.64-.39,.99-1.1,.92-1.84,0-.67-.37-1.29-.97-1.6-.17-.11-.35-.19-.55-.3Zm-13.33,4.22h3.98c.43,0,.87-.06,1.29-.16,1.3-.31,1.92-1.24,1.7-2.52-.11-.62-.54-1.13-1.12-1.36l-.37-.17,.28-.19c.86-.62,1.05-1.82,.43-2.68-.06-.08-.13-.16-.2-.23-.48-.46-1.12-.71-1.78-.7-1.36-.03-2.71,0-4.06,0-.05,0-.1,0-.15,0v8.03Zm-2.33-4.23l.22-.15c.88-.62,1.09-1.83,.47-2.7-.12-.18-.27-.33-.45-.45-.46-.32-1-.49-1.55-.49-1.32-.02-2.65,0-3.97,0-.19,0-.24,.06-.24,.24,0,2.53,0,5.05,0,7.57,0,.21,.07,.25,.26,.25h3.62c.41,0,.82-.04,1.22-.12,.91-.18,1.84-.69,1.92-1.98,.08-.64-.18-1.27-.7-1.66-.26-.18-.53-.35-.8-.51Zm13.32-7.47c-.15-.49-.3-.93-.42-1.39-.05-.19-.14-.23-.33-.23H9.86c-.13-.02-.25,.06-.27,.19,0,0,0,0,0,0-.12,.42-.26,.84-.37,1.27,0,.04,0,.09-.02,.15h3.5c.13-.02,.25,.06,.27,.19,0,0,0,0,0,0,.19,.63,.4,1.26,.59,1.89,.02,.12,.12,.2,.24,.18,0,0,0,0,0,0h5.77c.15,0,.21-.06,.25-.2,.18-.61,.37-1.22,.57-1.84,.02-.16,.17-.27,.33-.24,0,0,0,0,0,0h3.23l.23,.02Zm4.55,11.76c.19-.07,.38-.16,.56-.27,.23-.19,.27-.53,.08-.76-.02-.03-.05-.06-.08-.08-.31-.28-.77-.31-1.11-.06-.26,.17-.34,.52-.17,.78,.04,.07,.1,.12,.17,.17,.17,.1,.36,.17,.55,.23Z"></path><path class="cls-3" d="M16.97,47.12v.69c0,.13-.04,.19-.17,.18s-.31,0-.49,0v-2.84h.4c.4,0,.81,0,1.21,.04,.41,.02,.75,.33,.8,.74,.08,.41-.13,.82-.51,1l-.07,.06,.69,1h-.74s-.1-.06-.14-.11c-.12-.15-.24-.32-.33-.49-.12-.24-.4-.36-.65-.26Zm0-.62c.26,.01,.51,.01,.77,0,.18-.01,.32-.17,.31-.35,.03-.18-.1-.34-.28-.37,0,0-.01,0-.02,0-.25-.03-.52-.03-.79-.04v.76Z"></path><path class="cls-3" d="M10.6,46.85v.96c0,.13-.03,.19-.17,.18s-.31,0-.48,0v-2.84c.18,0,.36,0,.54,0,.04,0,.11,.11,.11,.17v.91h1.11v-.88c0-.18,.06-.22,.22-.21,.52,0,.45-.08,.45,.46v2.15c0,.19-.06,.24-.25,.24q-.43,0-.43-.44v-.55c0-.06-.07-.14-.11-.15-.31,0-.63,0-.99,0Z"></path><path class="cls-3" d="M26.73,43.09v-1.11c0-.14,.04-.2,.19-.19,.43,0,.87,.01,1.3,.06,.65,.12,1.09,.72,1.01,1.38-.07,.66-.62,1.16-1.28,1.17h-1.04c-.14,0-.18-.06-.17-.18,0-.39,0-.76,0-1.14Zm.97,.74c.07,0,.14,0,.2,0,.35-.01,.63-.28,.66-.63,.07-.38-.16-.75-.53-.85-.17-.02-.34-.04-.51-.03-.14,0-.17,.05-.17,.18v1c0,.33-.06,.34,.34,.34h0Z"></path><path class="cls-3" d="M17.47,43.09v-1.12c0-.13,.04-.18,.17-.18h1.04c.72,0,1.3,.58,1.3,1.3,0,.72-.58,1.3-1.3,1.3h-1.04c-.13,0-.17-.05-.17-.17,0-.37-.01-.75-.01-1.13Zm.64,.74c.4,.15,.84,.03,1.11-.3,.16-.29,.14-.64-.05-.9-.27-.28-.68-.37-1.04-.23v1.44Z"></path><path class="cls-3" d="M15.86,47.99h-.61c-.06-.02-.11-.07-.13-.13-.09-.45-.37-.56-.79-.49-.02,0-.04,0-.06,0-.4-.08-.68,.04-.77,.48,0,.06-.13,.13-.21,.14-.17,.01-.35,.01-.52,0,.04-.11,.07-.19,.11-.27,.35-.79,.7-1.58,1.04-2.38,.05-.13,.18-.22,.32-.21,.25-.05,.49,.11,.55,.36,0,0,0,0,0,.01,.3,.74,.64,1.48,.96,2.21,.04,.07,.07,.15,.11,.28Zm-1.2-1.21l-.35-.83-.37,.83h.72Z"></path><path class="cls-3" d="M13.88,43.48l.63,.91h-.65c-.06-.02-.12-.06-.15-.11-.11-.13-.21-.27-.29-.42-.1-.24-.37-.36-.61-.26,0,0,0,0-.01,0v.79h-.6v-2.58c.51,0,1.02-.03,1.52,0,.36,.01,.66,.28,.7,.64,.1,.38-.08,.79-.43,.97l-.1,.06Zm-.71-.45c.1,0,.2,0,.31,0,.18,0,.31-.15,.31-.32,0,0,0,0,0,0,.02-.17-.1-.32-.27-.34,0,0-.02,0-.03,0-.14,0-.27,0-.41,0q-.3,0-.3,.31t.39,.37Z"></path><path class="cls-3" d="M24.82,43.35v.51h1.42v.51h-1.87c-.14,0-.19-.04-.19-.19v-2.25c0-.15,.05-.18,.19-.18h1.67c.15,0,.22,.04,.2,.2h0q0,.34-.33,.34h-1.11v.47h1.24c.01,.14,.01,.28,0,.42,0,.05-.1,.12-.16,.12h-.84l-.23,.05Z"></path><path class="cls-3" d="M14.94,41.78h2.02c.01,.15,.01,.3,0,.45,0,.04-.1,.09-.16,.09h-.92c-.31,0-.33,0-.31,.32,0,.04,0,.09,.02,.15h1.21v.55h-.98c-.08,0-.22,.03-.22,.06-.02,.13-.02,.27,0,.41,0,.02,.11,.04,.16,.04h1.07c.15,0,.21,.05,.19,.2,0,.04,0,.08,0,.13,.02,.16-.04,.21-.21,.21h-1.84v-2.61Z"></path><path class="cls-3" d="M9.43,45.56l-.41,.46c-.24-.24-.58-.35-.91-.28-.17,.05-.33,.15-.45,.28-.26,.34-.24,.82,.04,1.15,.32,.35,.74,.33,1.35-.06l.39,.41c-.56,.63-1.51,.7-2.16,.16-.61-.54-.67-1.47-.14-2.08,0,0,.01-.01,.02-.02,.63-.63,1.64-.63,2.28-.01Z"></path><path class="cls-3" d="M3.56,44.39c.26-.59,.49-1.14,.74-1.69,.11-.27,.24-.53,.35-.8,.04-.11,.1-.17,.22-.15s.19,0,.29,0c.06,0,.12,.04,.15,.09,.37,.82,.72,1.64,1.08,2.47,0,.03,0,.05,0,.08-.18,0-.35,0-.53,0-.07-.03-.13-.08-.15-.16-.02-.27-.26-.46-.52-.44-.04,0-.08,.01-.12,.03-.03,0-.07,0-.1,0-.37-.07-.64,.04-.74,.46,0,.05-.11,.11-.17,.12-.14,.01-.3,0-.5,0Zm1.43-1.88l-.31,.74h.62l-.31-.74Z"></path><path class="cls-3" d="M8.62,43.59l.37,.37c-.39,.58-1.4,.68-1.98,.21-.59-.49-.67-1.36-.18-1.95,.01-.02,.03-.03,.04-.05,.52-.58,1.69-.54,2.11,0l-.37,.42c-.66-.37-1-.37-1.28,0-.26,.33-.24,.8,.04,1.11,.3,.28,.69,.26,1.25-.1Z"></path><path class="cls-3" d="M11.37,43.59l.32,.41c-.17,.33-.77,.52-1.35,.42-.6-.1-1.06-.6-1.11-1.21-.05-.57,.25-1.11,.77-1.35,.48-.23,1.35-.17,1.7,.3l-.37,.43c-.29-.35-.8-.4-1.15-.11-.04,.03-.08,.07-.11,.11-.24,.32-.22,.75,.03,1.05,.3,.32,.66,.31,1.27-.06Z"></path><path class="cls-3" d="M24.42,46.25c.21-.35,.4-.66,.61-.97,.06-.07,.15-.12,.24-.13h.59c-.06,.1-.09,.16-.13,.22-.29,.44-.59,.89-.87,1.34-.07,.11-.1,.24-.11,.37-.01,.25-.01,.5,0,.76,0,.11-.04,.15-.15,.15-.63,0-.53,.08-.51-.49,.03-.42-.11-.84-.37-1.17-.27-.37-.49-.74-.77-1.17h.74s.1,.09,.13,.14c.21,.31,.4,.62,.6,.96Z"></path><path class="cls-3" d="M21.27,45.75h-.86v-.5s.05-.08,.1-.1h2.28v.59h-.83v2.25c-.19,.01-.39,.01-.58,0-.04,0-.09-.12-.1-.18v-2.06Z"></path><path class="cls-3" d="M22.97,42.34v1.77c0,.29,0,.29-.29,.29-.39,0-.34,.05-.34-.35v-1.71h-.62c-.2,0-.21-.04-.19-.19,0-.05,0-.1,0-.14-.02-.17,.04-.23,.22-.23h1.82c.17,0,.22,.06,.21,.21,0,.06,0,.12,0,.18,0,.12-.05,.17-.17,.17-.21,0-.41,0-.64,0Z"></path><path class="cls-3" d="M19.28,45.17c.65-.1,.66-.1,.66,.52v2.08c0,.17-.06,.23-.22,.22s-.28,0-.44,0v-2.82Z"></path><path class="cls-3" d="M21.08,41.81v2.58h-.49c-.14,0-.12-.11-.12-.19v-1.91c0-.57,.03-.59,.61-.48Z"></path><path class="cls-3" d="M24.01,36.64h-1.04c-.14,0-.19-.05-.18-.19v-1.43c0-.13,.04-.18,.17-.18,.77,0,1.55,0,2.33,.03,.42-.03,.8,.23,.94,.62,.15,.39-.05,.83-.44,.98-.26,.09-.53,.15-.81,.16-.32,.03-.62,0-.96,0Z"></path><path class="cls-3" d="M22.79,33.36v-1.67c.05,0,.1,0,.15,0h1.8c.2,0,.39,.05,.57,.12,.3,.11,.5,.4,.48,.72,.02,.33-.19,.63-.5,.74-.17,.07-.35,.11-.53,.13h-1.88s-.05-.02-.09-.03Z"></path><path class="cls-3" d="M16.18,36.64h-1.03c-.15,0-.22-.04-.22-.21v-1.39c0-.13,.03-.21,.18-.2,.77,0,1.54,0,2.31,.03,.17,.01,.34,.05,.49,.12,.31,.11,.52,.41,.5,.74,.01,.34-.2,.64-.52,.74-.25,.08-.51,.12-.78,.14-.31,.05-.63,.03-.94,.03Z"></path><path class="cls-3" d="M14.96,33.36v-1.5c0-.14,.04-.19,.19-.19h1.82c.18,0,.36,.05,.53,.12,.29,.1,.48,.37,.47,.67,.03,.32-.15,.61-.45,.74-.14,.07-.29,.12-.45,.13-.72,.04-1.41,.03-2.12,.03Z"></path><path class="cls-3" d="M7.1,34.86s.09,0,.13,0c.79,0,1.58,0,2.37,.03,.18,.01,.35,.06,.51,.13,.3,.12,.48,.42,.46,.74,.02,.32-.17,.62-.47,.74-.25,.09-.52,.15-.79,.15-.66,.02-1.32,0-1.98,0-.18,0-.23-.06-.22-.23,.01-.52,0-1.03,0-1.56Z"></path><path class="cls-3" d="M7.11,33.36v-1.7h1.87c.24,0,.47,.06,.69,.14,.29,.11,.47,.39,.44,.7,.01,.31-.17,.59-.45,.71-.15,.08-.32,.12-.49,.14-.69,.02-1.36,.01-2.06,.01Z"></path><path class="cls-3" d="M28.73,38.11c-.34,.02-.63-.23-.66-.56,.02-.34,.3-.59,.64-.59,.34-.02,.64,.23,.68,.58-.03,.34-.32,.59-.65,.58Zm.2-.54c.03-.08,.1-.2,.07-.25-.06-.07-.15-.12-.25-.13-.28-.04-.3,0-.3,.27,0,.14,0,.29,.02,.44h.06l.03-.07c.03-.08-.07-.23,.1-.24s.2,.08,.24,.21c0,.04,.06,.08,.08,.12l.06-.03-.11-.31Z"></path><path class="cls-3" d="M28.65,37.21l.25,.19-.32,.18v-.32l.07-.06Z"></path></g></g></g></svg> 