<?xml version="1.0" encoding="UTF-8"?> <svg xmlns="http://www.w3.org/2000/svg" id="Layer_1" data-name="Layer 1" version="1.1" viewBox="0 0 521 521.99"><defs><style> .cls-1 { fill: #fff; stroke-width: 0px; } </style></defs><path class="cls-1" d="M0,0h521v521.99H0V0ZM500.84,500.91V21.18c-16.3-.74-475.44-.42-479.67.29v479.43h479.67Z"></path><path class="cls-1" d="M495.67,25.17c.52.52.87.87,1.23,1.23v470.44H25.25V25.17h470.42ZM475.83,476.91V46.25H45.15v429.4c.5.5.86.86,1.27,1.27h429.42Z"></path><path class="cls-1" d="M110.14,395.83c-2.48-3.47-5.66-4.22-9.58-3.74-2.14.61-3.66,2.55-5.49,4.34-1.64,7.57-1.64,15.27-.06,23.02,1.17,1.11,2.37,2.24,3.77,3.56,4.24-.45,9.74,1.82,12.21-5.05v-4.71c1.7-.56,3.51-.16,5.27-.23,1.81-.08,3.62-.02,5.35-.02,1.49,3.45-.84,6.42-.7,9.59-2.39,3.65-4.94,7.1-9.42,8.41-4.67,1.37-9.61.89-15.18.19-3.1-.39-5.47-1.78-7.63-3.32-2.94-2.09-4.76-5.63-5.47-9.04-.5-2.42-1.59-4.86-1.28-7.54.3-2.63-.14-5.34.11-7.98.51-5.38,2.34-10.32,5.75-14.59,1.06-1.33,3.93-2.76,6.43-3.76,3.29-1.32,6.61-2.16,10.17-1.98,2.63.13,10.35,2.59,12.24,4.19,1.97,1.66,3.53,4.06,4.03,6.27.6,2.65,2.33,5.4,1.01,8.46h-10.51c.15-2.12-1.75-3.77-1.03-6.07Z"></path><path class="cls-1" d="M240.92,383.17v47.64h-9.68c-.78-.48.14-1.68-.15-2.1-.86.86-1.83,1.83-2.29,2.29-3.12-.42-4.62,1.11-6.67,1.08-7.14-.12-12.37-3.59-14.17-11.78-1.97-8.96-1.14-9.7,1.18-17.18,1.53-4.94,5.92-7.43,11.07-8.08,1.64-.21,3.32-.03,4.91-.03,1.85.97,3.63,1.9,5.69,2.97.43-2.36.13-4.8.18-7.2.06-2.47.01-4.95.01-7.6h9.92ZM231,420.48v-14c-1.16-1.14-2.35-2.3-3.6-3.52-2.75.2-5.76-.62-8.05,1.26-.81,1.61-1.5,2.99-2.35,4.69,0,2.08-.08,4.58.02,7.06.13,3.4.68,6.63,5.14,8.02h5.34c1.16-1.16,2.32-2.34,3.5-3.51Z"></path><path class="cls-1" d="M266.9,421.45c.88-2.74-.89-5.21-1.02-7.96-.14-2.84,2.34-5.17,1-7.67,6.17-13,15.95-12.74,22.96-7.88v-14.69h10.01v47.66h-9.43c-1.02-.77.2-2.05-.94-2.9-2.12,2.41-4.5,4.2-8.08,4.07-3.47-.12-6.3-1.29-9.3-2.95-3.23-1.79-2.62-5.6-5.19-7.68ZM280.75,402.99c-2.76,1.85-4.35,4.2-4.65,6.87-.5,4.44-.35,8.95,1.71,11.89,3.08,3.19,6.06,1.96,8.69,2.27,1.72-1.85,3.63-3.18,4.47-6.65-.18-3.39.81-8.13-1.52-12.43-2.54-2.55-5.71-1.86-8.7-1.96Z"></path><path class="cls-1" d="M160,430.9h-9.78c-.15-1-.29-1.92-.52-3.45-1.21,1.57-2.1,2.72-2.98,3.86-3.38,1.21-6.68.53-9.35.69-3.91-1.19-6.53-3.29-8.31-6.99-.15-3.6-.7-7.83,2.46-11.71,1.68.58,2.05-1.96,3.94-2.46,2.23-.59,4.38-.84,6.62-.84,2.49,0,4.98,0,7.54,0,.73-1.42.21-2.93.42-4.54-.84-.65-1.76-1.35-3.11-2.39h-5.38c-1.57.59-1.35,2.75-2.99,3.78h-8.2c-1.69-2.86,1.33-4.83,1.73-7.32,4.41-3.37,9.35-5.12,15.04-4.55,5.82.58,10.19,3.24,12.87,8.88v27.04ZM139,423.51c2.13,2.47,4.54,1.04,6.5,1.27,2.79-.4,3.53-2.58,4.6-4.76-.61-1.16.56-2.74-.6-4.02-2.36,0-4.68,0-7,0-.9,1.17-2.77.99-3.46,2.5,0,.12-.03.28-.03.44,0,1.49,0,2.98,0,4.57Z"></path><path class="cls-1" d="M168.16,396.08h9.86v5.37c2.63-4.38,5.86-7.18,15.03-6.47,1.78.92,3.42,1.77,5.29,2.73.76,1.48,1.61,3.14,2.54,4.93v28.23h-9.87c0-6.72.04-13.49-.04-20.25-.01-1.24.02-2.44-.45-3.78-.82-2.33-2.7-2.87-4.43-3.84-1.8-.13-3.52.65-4.87,1.45-2.48,1.47-3.16,4.3-3.2,7.06-.09,6.32-.03,12.64-.03,19.2-1.52.59-3.17.21-4.76.27-1.64.06-3.28.01-5.08.01v-34.91Z"></path><path class="cls-1" d="M150.5,264c-.12.12-.25.22-.35.36-4.77,6.37-11.54,7.47-18.72,6.56-5.77-.73-9.64-4.3-11.39-9.9-.66-2.11-1.22-4.25-1.09-6.57.21-3.65.04-7.33.06-10.99.04-6.6,2.51-11.76,8.73-14.71.28-.13.48-.46.73-.72,1.86-.18,3.71-.46,5.58-.85,3.75-.78,7.45.6,10.94,2.27,3.04,1.46,5.09,3.67,6.05,6.92.13.43.61.75.67.82,1.82,9.24,2.31,18.14-1.19,26.81ZM139.41,267.02c.85-.99,2.5-1.58,2.5-2.89,0-1.83,1.23-3.19,1.17-5.08-.21-6.82-.12-13.65-.06-20.47.02-2.06-.73-3.7-2.08-5.14-.8-.85-1.6-1.68-2.32-2.43h-6.05c-1.75,1.35-3.07,3.03-3.52,5.07-.7,3.13-1.39,6.29-1.06,9.56.48,4.84-.3,9.67.8,14.61.93,4.18,2.89,6.4,6.15,7.68,1.89.3,2.85-1.7,4.47-.92Z"></path><path class="cls-1" d="M301.92,114.07v19.8h-4.54c-.33-.33-.68-.68-1.2-1.2v-22.01c-.99-.98-1.82-1.8-2.68-2.66-2.35.05-4.82-.47-7.27,1.52-.52,1.01-1.3,2.53-2.22,4.32v19.85c-1.51.6-3.11.24-4.56.25-.48-.48-.83-.83-1.32-1.32v-29.42h4.54c.45.43,1.16,1.09,1.8,1.7,3.9-3.57,8.29-3.51,13.26-1.6.81.78,2.28,1.63,2.59,3.98,3.42-4.78,7.89-6.25,13.14-5.12,2.85,1.29,5.13,3.21,6.47,6.91v24.75h-4.58c-.32-.32-.79-.79-1.3-1.3v-22.07c-.81-.7-1.68-1.46-2.74-2.38-2.08-.15-4.5-.47-6.98,1.33-.55,1.06-1.32,2.56-2.4,4.66Z"></path><path class="cls-1" d="M166.12,263.69c5.37-.25,10.66,1.48,15.78-.94.06-1.13.12-2.25.19-3.56h4.82v10.64h-28.65v-6.52c1.4-2.56,4.52-3.97,7.04-5.89,3.66-2.78,6.85-5.78,9.42-9.57,1.38-2.04,2.37-4.08,2.28-6.56-.12-3.03.62-6.18-1.31-9.08-2.98-1.98-5.81-1.55-8.76,1.32,0,1.13.58,3.05-.13,3.92-1.15,1.41-.42,2.85-1,4.35h-7.61c-.37-2.48-.48-5.07,1.04-7.57,1.42-2.33,3-4.28,5.53-5.72,1.86-1.06,3.77.21,5.58-1.15,1.26-.95,3.25-.64,5.02.32,1.17.63,2.85.32,3.45.37,3.56,1.12,5.09,3.55,7.2,5.37,0,.66-.1,1.34.02,1.98.89,4.66,1.01,6.14-.08,9.65-.4,1.29-1.08,2.54-2.08,3.64-4.28,4.72-9.35,8.5-14.41,12.29-1.91-.22-2.06,1.99-3.33,2.69Z"></path><path class="cls-1" d="M93.04,263.84h12.61c.7-.7,1.52-1.52,2.35-2.34,0-.66,0-1.33,0-2.21,1.52-.57,3.11-.24,4.85-.24v10.71h-28.69v-7.36c4.1-1.94,7.15-5.52,10.93-8.15,3.7-2.57,5.73-6.72,7.9-11.21-.33-3.14.86-6.93-.98-10.48-1.81-1.67-4.02-1.73-6.44-1.53-3.62,2.62-3.7,6.65-3.54,10.81h-8.03c0-1.51.03-3.12-.01-4.73-.03-1.02.4-1.74.9-2.64,2.26-4.09,4.82-6.04,9.25-6.5.62-.06,1.19-.04,1.83-.41,3.33-1.89,6.45.61,9.72.76,2.22.1,3.74,2.42,5.16,4.15.41.5.45,1.48,1.14,1.98,0,2.18-.11,4.35.02,6.5.24,3.79-1.41,6.7-3.86,9.4-3.93,4.32-8.67,7.57-13.55,10.66-.77.49-1.73,1.04-1.57,2.82Z"></path><path class="cls-1" d="M223.91,253.82v6.03h-5.67v6.04h4.35c.62,1.38.49,2.62.21,3.99h-19.49c-.49-1.17-.38-2.41-.09-3.83h5.59v-5.72c.09.1,0-.04-.13-.14-.12-.09-.28-.19-.42-.19-5.63,0-11.26,0-17.08,0v-6.35c5.51-8.5,10.24-17.52,16.03-25.65h10.69c.23,8.54,0,17.1.14,25.82h5.87ZM208.87,255c2.3-3.66.88-7.7,1.06-11.49.18-3.77.42-7.62-.33-11.9-5.14,7.72-9.38,15.28-13.69,22.79.34.25.59.58.84.58,3.96.03,7.92.02,12.12.02Z"></path><path class="cls-1" d="M231.17,170.1h4.33c.88.49.07,1.49,1.26,1.85.11-.02.73.04.97-.24,5.37-6.06,18.01-1.97,19.4,6.18.79,4.61,1.11,9.67-.05,14.21-.91,3.58-2.97,5.78-6.06,7.46-.81.44-2.05.19-2.45,1.36-4.04.27-7.98.19-11.53-3.19v15.15h-5.88v-42.8ZM243.02,196c-.2,0,.13,0,.46,0,5.55-.09,8.49-3.04,8.52-8.57.01-2.65,0-5.31,0-7.5-1.14-2.65-2.7-4.46-4.59-5.89h-5.85c-5.3,4.08-5.78,9.44-4.58,15.34.66,3.25,2.65,5.26,6.04,6.62Z"></path><path class="cls-1" d="M132.34,185.08c1.92-1.66,3.89-1.6,5.07-2.98,4.17-.11,8.16-1.78,12.49-1.01v-4.73c-.67-.59-1.64-1.44-2.69-2.35h-6.76c-.61.78-1.41,1.81-2.48,3.18v1.6h-5.72c-.24-5.2.08-5.63,7.17-9.68,6.74-.33,13.69-1.05,16.57,8.16,0,5.22,0,11.2,0,17.19.73.87,2.15.67,2.97,2.25.29.61,0,1.75-.03,2.87-2.6,2.6-6.21,1.57-8.39-2.68-1.53,2.21-4.11,2.66-6.22,4.12-1.34,0-2.85-.11-4.33.02-2.93.26-5.31-1.27-7.22-2.95-1.81-1.6-2.04-4.41-2.73-6.77-.26-.88-.03-1.79.71-2.69.84-1.02,1.14-2.49,1.58-3.53ZM149.91,186c-2.76,0-5.13-.34-7.36.09-2.45.47-5.1.78-6.26,3.96-.78,2.12.79,3.18.96,4.66,2.36,1.54,4.87,1.51,7.3,1.01,2.79-.67,4.15-2.76,5.35-5.67v-4.05Z"></path><path class="cls-1" d="M90,117v15.83h-4.76v-41.83c6.01,0,12.14-.32,18.21.15,2.62.2,5.71.93,7.5,3.38,1.76,2.4,3.42,4.92,3.07,8.21-.19,1.81-.03,3.66-.03,4.87-1.5,4.84-4.13,7.96-9.66,9.39h-14.34ZM90.08,112c3.58,0,6.75-.19,9.88.05,3.4.27,5.91-1.05,8.08-3.66-.07-1.46-.27-3.1.99-4.26-.82-2.14-1.59-4.14-2.01-5.26-5.61-4.56-11.37-2.28-16.93-2.95v16.07Z"></path><path class="cls-1" d="M286.47,171.97c.78,1.52,1.56,3.03,2.5,4.86v17.54c.7.97,2.18.7,2.31.97.99,1.93.65,3.08.66,4.2-2.61,2.61-6.22,1.58-8.41-2.67-1.52,2.24-4.14,2.63-6.19,4.12-2.95-.06-6.07.48-8.94-1.09-1.41-1.41-2.83-2.83-4.28-4.28-.46-1.44.48-3.29-1.17-4.42.37-1.25,1.61-2.19.95-3.82,1.16-1.1,2.4-2.19,3.55-3.39,1.03-1.07,2.53-1.92,3.67-1.89,3.93.13,7.57-2.02,11.69-.98v-4.81c-.65-.65-1.48-1.48-2.31-2.31h-6.98q-2.28,2.32-2.85,4.89h-5.33c-.19-3.52,1.69-6.53,4.5-8.33,3.41-2.19,11.09-2.22,13.79-.28.81.58,1.93.41,2.83,1.68ZM282.91,186c-2.93,0-5.41-.14-7.87.04-2.2.16-3.79,1.04-5.2,3.21-1.57,2.42,0,3.77.35,5.08,2.4,2.2,4.96,1.7,7.33,1.59q3.37-2.01,5.39-5.36v-4.56Z"></path><path class="cls-1" d="M161.14,128.86c1,.11,1.78.2,2.51.28.15.19.33.31.34.44.02.99.01,1.98.01,2.89-1.4,2.24-3.57,1.34-5.46,1.53-.98-1.23-2.8-1.85-2.57-4.86-3.77,5.53-8.71,4.91-13.49,4.83-1.13-1.21-2.65-1.62-4.13-2.12q-3.33-6.38-2.32-11.39c1.45-1.34,3.04-2.79,4.82-4.42,2.04.09,4.17-1.72,6.68-1.04,2.5.68,4.64-1.06,7.25-1.09v-4.78c-.42-1.07-2.3-.88-3.21-2.04-2.92-.28-5.79-.33-8.19,2.01-.89.65-.01,1.84-.63,2.78h-5.67c-.55-4.22,2.98-6.04,5.02-8.51,4.45-1.65,8.79-2.08,13.22-.13,1.38,1.39,2.89,2.91,4.69,4.71,2.04,6.43.45,13.54,1.12,20.91ZM154.92,119c-2.41,0-4.4.11-6.37-.03-1.98-.14-3.5,1.28-5.56,1.25-.89,1.47-1.86,2.87-2.11,5.05,1.34.69.93,2.71,2.68,3.66h6.44c1.87-1.85,3.38-3.34,4.92-4.87v-5.05Z"></path><path class="cls-1" d="M345.98,187.03h-20.61c-.64,1.26-.31,2.41-.31,3.62,1.54.74,1.75,2.56,2.68,3.67,7.42,3.08,8.47,1.6,12.6-4.2h4.43c1.11,4.19-1.43,7.14-4.43,8.7-3.63,1.88-7.83,3.73-12.18,1.21-.37-.22-.98-.03-1.71-.03-2.26-2.69-5.67-4.63-6.57-8.59-.1-.42-.85-.77-.84-1.13.17-4.37-.86-8.88.99-13.07,2.02-4.59,5.92-8.38,11.58-8.22,1.65.05,3.31,0,4.34,0,8.43,3.36,10.31,9.85,10.02,18.03ZM329.75,173.97c-1.69,1.62-3.25,3.09-4.77,4.55.21,1.17-.39,2.36.39,3.39h14.3c1.31-5.55-2.63-8.82-9.92-7.94Z"></path><path class="cls-1" d="M420.52,171.01c2.75,7.36,5.28,14.15,7.92,21.22,2.87-7.9,5.63-15.51,8.39-23.11h4.86c.89,1.73.02,3.23-.64,4.88-1.54,3.86-2.82,7.83-4.29,11.71-2.07,5.47-4.25,10.9-6.33,16.36-.71,1.88-1.34,3.74-2.37,5.52-3.11,5.36-6.01,6.49-11.91,4.12v-4.51h6.02c1.57-1.62,1.63-3.58,2.32-5.27.73-1.78.5-3.43-.3-5.44-3.32-8.28-6.61-16.58-9.98-24.85-.28-.69-.17-1.55-.26-2.5h4.72c.69.69,1.51,1.51,1.85,1.85Z"></path><path class="cls-1" d="M206.72,169.07c5.55-.38,11.3-.55,15.15,5.73v3.99h-4.59c-1.49-1.02-1.64-3.56-4.22-4.78-2.24.14-5.18-.61-7.93,1.34v5.24c3.21.69,6.43,1.44,9.83,1.61,1.67.08,4.11.51,5.38,2.58.59.96,1.61,1.67,2.54,2.61v7.08c-1.98,5.22-6.67,6.14-11.75,6.56-4.32.36-7.78-1.2-10.78-4.15-1.83-1.8-2.73-3.89-2.22-6.67h5.58c.01,2.86,1.96,4.53,5.7,5.78,1.96.1,5.07.55,7.47-2.45v-4.13c-.39-.39-.7-.99-1.1-1.05-3.3-.53-6.48-1.97-9.77-1.29-1.81-.93-3.45-1.77-5.1-2.62-2.58-2.47-1.81-5.67-1.94-8.49,1.09-4,4.51-5.21,7.73-6.87Z"></path><path class="cls-1" d="M172,199.91h-5.84v-30.59c1.35-.81,2.97-.01,4.34-.38,1.05,1.36-.08,2.86,1.03,4.11,3.11-4.75,7.93-4.21,12.83-3.98,5.08,1.9,6.42,6.37,6.58,11.29.21,6.45.05,12.91.05,19.5h-6c0-6.03.01-12.13-.01-18.23,0-1.13.12-2.38-.29-3.37-1.68-4.02-5.37-5.63-9.52-2.92-1.54,1-2.22,2.7-3.17,4.46v20.11Z"></path><path class="cls-1" d="M262,103.12h5.87v29.51c-.38.38-.85.85-1.32,1.33-1.12-.03-2.27.33-3.52-.33v-2.93c-.41-.81-.55-.71-.9-.36-1.35,1.36-2.5,3-4.6,3.42-3.77.5-7.58.56-10.97-1.92-.49-.14-.47-.61-.58-1.09-.26-1.15-2.08-1.44-1.91-2.66.3-2.19-1.2-3.9-1.13-6.08.2-6.15.07-12.3.07-18.73h5.83v21.11c1.15.59.91,1.83,1.57,2.48,4.04,4.02,8.51,1.75,10.64-1.88.79-1.34.97-2.65.96-4.1-.02-5.81,0-11.63,0-17.77Z"></path><path class="cls-1" d="M249.18,396.32c.53-.53.88-.88,1.38-1.38,2.98.67,6.41-1.16,9.36,1.23v34.66c-2.94,2.39-6.38.55-9.36,1.23-.5-.5-.85-.85-1.38-1.38v-34.35Z"></path><path class="cls-1" d="M404.57,193.79c.95-1.78,1.67-3.14,2.39-4.51,1.92-.4,3.67-.82,4.95,1.16.64,1.49-1.88,2.34-.86,3.99-1.8,1.73-3.59,3.45-5.34,5.14-3.08,1.86-6.51,1.38-9.69,1.43-1.67-.78-3.38-1.27-4.7-2.26-3.21-2.39-4.85-5.81-5.28-9.74-.2-1.81.12-3.67-.06-5.48-.49-4.89,1.42-8.73,4.93-11.93.49-.45.94-.94,1.18-1.17,7.52-2.81,13.94-2.24,18.79,5.6.07.56.33,1.94,1.15,3.05-.83,2.4-2.79,1.92-4.57,1.92-2.65-1.69-1.46-6.71-6.22-6.63-4.29-.97-7.37,1.05-9.25,5.63v9.73c.97,3.51,3.06,5.31,5.61,6.21,2.63.93,4.71-1.31,6.96-2.13Z"></path><path class="cls-1" d="M109.9,158.17v4.65h-11.21c-.3.29-.44.39-.53.52-.08.12-.16.28-.16.43,0,11.95,0,23.91,0,36.04h-5.94c-.13-5.88-.04-11.96-.06-18.03-.02-6.14,0-12.27,0-18.75h-12.9v-4.86h30.81Z"></path><path class="cls-1" d="M210.15,132.75v-29.65h4.45c1.01.76-.21,2.04.76,2.77.95-1.07,1.89-2.13,2.84-3.2,3.88-.91,7.43-1.27,11.03.41,1.82,1.43,3.72,2.92,4.68,6.2v23.55h-4.65c-.24-.16-.27-.63-.27-1.13,0-4.16-.1-8.32.04-12.47.13-3.89-.29-7.61-2.63-11.09-1.07-.17-2.55-.08-3.3-1.25-3.42.35-5.07,2.67-6.89,4.4-1.99,5.37-.97,10.81-1.19,16.15-.08,1.79-.01,3.58-.01,5.31h-4.85Z"></path><path class="cls-1" d="M378,199.91h-5c0-5.86-.18-11.65.1-17.42.1-2.08-.96-3.67-1.18-5.57-.24-2.04-2.53-2.15-3.99-2.84-.95-.45-2.28-.08-3.42-.08-1.43,1.43-2.84,2.84-4.04,4.04-2.34,5.23-1.21,10.5-1.44,15.67-.09,1.97-.01,3.95-.01,6.11h-4.67c.07.07-.15-.05-.15-.16-.02-9.77-.01-19.54-.01-29.49h4.7c.51.22-.29,1.51,1.16,1.88,1.71-.11,1.99-3.26,4.55-2.52,5.81-1.39,10.75-.11,13.43,6.45v23.93Z"></path><path class="cls-1" d="M178.03,94.07v8.8h8.75v5.05h-8.56v18.79c.42.42.77.77,1.3,1.3h7.33v4.58c-6.75,2.86-11.67,2.06-14.84-4.11v-20.08c-1.8-.97-3.85.04-5.85-.65v-4.43c1.7-.88,3.76.15,5.77-.61v-7.45c2.04-.08,3.59-1.54,6.11-1.2Z"></path><path class="cls-1" d="M121,90.09h4.59c.45.45.8.8,1.32,1.32v36.03c1.25,1.16,2.74.02,3.98.92v5.46h-5.43c-1.61-.78-3.26-1.76-4.46-3.42v-40.3Z"></path><path class="cls-1" d="M299.1,199.82v-30.67h4.58c.81.62-.06,1.81.58,2.78,3.9-.36,7.28-4.82,11.64-1.94v4.87h-4.67c-2.16,1.06-4.07,1.91-4.96,3.34-2.43,7.34-.61,14.47-1.46,21.63h-5.71Z"></path><path class="cls-1" d="M111.09,199.82v-30.66h4.59c.97.93-.2,2.43.55,3.57.24.3.41.2.72-.16,1.95-2.33,4.89-2.64,7.52-3.53,1.33-.45,2.61.03,3.42,1.38v4.44h-4.73c-1.23.63-2.32.98-3.12,1.65-2.05,1.72-3.15,3.88-3.08,6.71.13,5.47.04,10.95.04,16.59h-5.91Z"></path><path class="cls-1" d="M193.17,103.1h5.65v30.78h-4.44l-1.21-1.21v-29.57Z"></path><path class="cls-1" d="M307,423.6c1.29-1.78,3.06-2.81,4.97-3.62,2.04,1.15,4.79,1.04,6.03,3.88v4.64c-1.16,1.15-2.34,2.31-3.54,3.49h-3.96c-1.15-1.16-2.32-2.34-3.49-3.53v-4.87Z"></path><path class="cls-1" d="M254.92,393.06c-.97-1.21-2.56-.87-3.79-1.36-1.58-1.83-2.56-3.82-2.1-6.18.35-1.76,2.29-3.22,5.67-4.61,2.02.63,3.83,1.84,5.29,3.65v4.84c-1.3,1.77-3.06,2.81-5.08,3.66Z"></path><path class="cls-1" d="M193.17,90.1h5.43c.35.35.7.7,1.39,1.39-.38,1.62,1.02,3.82-1.44,5.43h-5.38v-6.82Z"></path></svg> 