<?xml version="1.0" encoding="UTF-8"?> <svg xmlns="http://www.w3.org/2000/svg" id="Layer_1" viewBox="0 0 418.39 418.5"><defs><style>.cls-1{fill:#fff;stroke-width:0px;}</style></defs><path class="cls-1" d="m.02,396.65c1.12-11.92,2.31-23.28,3.23-34.66,1.34-16.55,2.74-33.1,3.63-49.68,1.14-21.12,2.09-42.26,2.61-63.4.48-19.64.45-39.3.33-58.95-.1-15.49-.41-30.98-1.1-46.45-.94-21.13-2.09-42.26-3.59-63.36C3.77,61.11,1.71,42.13.16,23.11-.92,9.84,11.24-1.22,24.51.15c18.74,1.93,37.51,3.71,56.3,5.04,22.05,1.55,44.14,2.65,66.22,3.74,10.76.53,21.55.72,32.32.83,16.3.17,32.6.49,48.89.11,26.57-.62,53.16-1.38,79.7-2.78,22.71-1.2,45.38-3.34,68.06-5.13,6.29-.5,12.55-1.28,18.83-1.86,13.9-1.29,24.88,11.03,23.44,25.56-2.15,21.69-4.17,43.39-5.66,65.13-1.49,21.74-2.6,43.51-3.24,65.29-.68,22.99-1.13,46.01-.73,69,.53,30.33,1.55,60.66,3.2,90.94,1.32,24.22,3.94,48.37,5.87,72.56.33,4.19.8,8.53.06,12.6-2.02,11.09-12.91,18.29-24.15,17.13-16.91-1.75-33.85-3.36-50.81-4.59-20.54-1.49-41.09-3.05-61.67-3.65-31.61-.92-63.24-1.49-94.86-1.39-32.57.1-65.13,1.51-97.61,4.07-21.65,1.7-43.27,3.69-64.9,5.68-12.51,1.15-24.29-9.82-23.76-21.77Zm169.11-108.76c8.86,0,17.73.02,26.59,0,5.37-.02,8.68-3.31,8.69-8.66.02-17.73.02-35.45,0-53.18,0-5.47-3.35-8.79-8.83-8.8-17.65-.01-35.29-.01-52.94,0-5.65,0-8.87,3.25-8.87,8.94,0,17.57,0,35.13,0,52.7,0,5.86,3.14,8.99,9.01,9,8.78.01,17.57,0,26.35,0Zm80.19,0c8.78,0,17.57,0,26.35,0,5.87,0,9.1-3.08,9.11-8.97.05-17.57.05-35.14,0-52.7-.02-5.82-3.33-8.97-9.15-8.97-17.49,0-34.98,0-52.46,0-5.81,0-9.09,3.25-9.09,9.01,0,17.57,0,35.14,0,52.7,0,5.7,3.2,8.92,8.88,8.93,8.78.02,17.57,0,26.35,0Zm-195.94-35.41c0,8.78,0,17.57,0,26.35,0,5.91,3.11,9.05,8.97,9.05,17.57,0,35.14,0,52.7,0,5.72,0,8.95-3.16,8.96-8.85.02-17.65.02-35.29,0-52.94,0-5.64-3.3-8.84-8.99-8.85-17.57,0-35.14,0-52.7,0-5.67,0-8.92,3.22-8.93,8.88-.02,8.78,0,17.57,0,26.35Zm311.74.05c0-8.7,0-17.41,0-26.11,0-5.97-3.19-9.18-9.15-9.18-17.09,0-34.18,0-51.26,0-7.42,0-10.3,2.85-10.31,10.24,0,16.77,0,33.54,0,50.31,0,.72.01,1.44.08,2.15.46,5.06,3.56,7.94,8.66,7.94,17.73.02,35.45.02,53.18,0,5.56,0,8.79-3.25,8.8-8.76.01-8.86,0-17.73,0-26.59ZM107.55,173.61v-42.16h-7.5v27.46c-.81-1.33-1.23-2-1.63-2.68-4.58-7.77-9.14-15.55-13.78-23.28-.43-.71-1.28-1.53-2.02-1.62-1.95-.23-3.94-.08-5.98-.08v42.21h7.56v-27.84c.74,1.2,1.12,1.8,1.48,2.41,4.68,7.89,9.34,15.8,14.08,23.66.47.78,1.36,1.69,2.16,1.81,1.78.27,3.63.09,5.62.09Zm90.19,6.25c3.24,6.41,9.47,9.42,16.72,8.25,7.19-1.16,11.89-5.43,12.43-12.78.66-8.97.44-18.01.6-27.01.02-1.09,0-2.18,0-3.32h-7.17c-.07.97-.14,1.8-.21,2.72-7.39-4.96-14.58-4.65-19.58.7-4.89,5.23-5.32,14.58-.93,20.38,2,2.63,4.6,4.4,7.83,5.17,4.75,1.13,8.93-.16,12.66-3.42.25,5.37-1.56,9.09-4.97,10.54-4.03,1.71-7.67.55-11.68-3.83-1.82.83-3.69,1.68-5.72,2.6Zm-86.18-94.64c-5.49-7.34-15.33-10.21-23.83-7.16-9.27,3.33-14.97,12.05-14.54,22.21.4,9.25,7.28,17.59,16.38,19.86,8.29,2.07,18-1.37,21.88-7.83-1.81-1.37-3.63-2.75-5.41-4.11-7.39,6.8-15.28,7.17-21.08,1.14-5.56-5.79-5.46-15.48.23-21.27,5.79-5.9,13.65-5.4,20.81,1.39,1.81-1.37,3.63-2.76,5.57-4.23Zm32.28,34.59c0-5.11.02-9.97-.01-14.84-.01-1.51-.08-3.04-.29-4.54-.93-6.74-5.99-10.85-12.59-9.74-2.59.43-4.99,2.02-7.53,3.11v-17.98h-7.07v43.93h7.04c.03-.54.08-.93.08-1.32,0-4.79-.07-9.58.03-14.37.08-3.92,3.08-6.68,7-6.68,3.54,0,5.9,2.6,5.99,6.65.04,2,0,3.99,0,5.99,0,3.24,0,6.49,0,9.79h7.35Zm36.1,0v-28.49h-7.02c-.06,1.07-.11,1.98-.17,3.01-6.76-5.11-14.06-5.01-19.17.1-5.3,5.3-5.82,15.13-1.12,21.12,2.51,3.19,5.82,4.9,9.84,5.19,4.11.3,7.47-1.42,10.47-4.44.06,1.39.11,2.4.16,3.51h7.01Zm-42.14,28.24c-6.59-6.2-15.1-4.01-18.93-.27-5.41,5.29-6.11,15.13-1.37,21.31,2.47,3.23,5.8,4.93,9.82,5.24,4.1.31,7.5-1.34,10.51-4.42.08,1.42.13,2.43.19,3.5h7.07v-28.4h-7.05c-.08,1.02-.15,1.87-.24,3.04Zm118.52-.18c-7.17-5.05-14.57-4.85-19.46.43-5.13,5.54-5.38,15.2-.53,21.19,2.51,3.1,5.88,4.65,9.77,4.87,3.97.23,7.33-1.43,10.25-4.48.14,1.47.23,2.54.33,3.57h6.87v-28.46h-6.83c-.14.99-.27,1.9-.41,2.88Zm32.96,11.22c-.01,8.78,6.49,15.32,15.23,15.32,8.62,0,15.24-6.53,15.29-15.09.05-8.72-6.46-15.21-15.3-15.26-8.67-.05-15.21,6.41-15.23,15.02Zm-45.99-67.81c2.99,7,5.58,13.87,8.84,20.4,2.18,4.37,2.47,8.19.1,12.51-1.61,2.94-2.55,6.26-3.95,9.79,2.27,0,4.12.18,5.9-.08.87-.13,2.04-.89,2.37-1.66,5.54-13.05,10.98-26.15,16.42-39.24.22-.54.33-1.13.53-1.85-2.19,0-4.1.08-6.01-.03-1.27-.07-1.81.47-2.24,1.6-1.34,3.5-2.78,6.95-4.2,10.42-.77,1.88-1.58,3.75-2.52,6.01-1.72-4.22-3.26-7.98-4.8-11.73q-2.73-6.66-10.46-6.13Zm75.26-35.68c-.93,1.49-1.73,2.26-1.92,3.16-1.4,6.47-5.29,10.3-11.76,11.7-.82.18-2,1.35-1.98,2.03.03.75,1.15,1.93,1.97,2.1,6.65,1.33,10.44,5.31,11.82,11.89.16.75,1.38,1.89,1.93,1.79.84-.14,2.02-1.1,2.18-1.9,1.35-6.62,5.22-10.5,11.86-11.81.78-.15,1.72-1.39,1.84-2.23.08-.54-1.1-1.7-1.88-1.87-6.55-1.42-10.53-5.22-11.82-11.88-.17-.87-1.15-1.57-2.23-2.98Zm-169.19,89.25c.11.61.1.85.19,1.06,3.64,8.75,7.25,17.51,10.99,26.22.3.69,1.42,1.2,2.26,1.43.89.24,1.91-.05,2.85.08,1.65.23,2.34-.53,2.95-2,3.36-8.17,6.84-16.3,10.27-24.44.29-.69.51-1.41.84-2.34-2.3,0-4.21.07-6.12-.03-1.24-.06-1.82.39-2.25,1.56-1.38,3.82-2.88,7.6-4.35,11.38-.78,2.01-1.59,4.01-2.55,6.43-2.41-6.19-4.6-11.92-6.91-17.59-.29-.71-1.14-1.6-1.81-1.67-2.04-.22-4.12-.08-6.38-.08Zm85.4-25.03v-23.01h5.9v-5.72h-6.08v-10.34h-7.15v10.53h-4.98v5.52c1.69.08,3.25.15,5.07.23v22.8h7.23Zm45.97,30.84h5.96v-5.9h-6.04v-10.35h-7.25v10.58h-4.9v5.65h5.09v22.78h7.15v-22.76Zm-93.85-59.4v28.54h7.07c0-1.22-.03-2.31,0-3.41.12-3.74-.03-7.52.47-11.22.93-6.83,4.18-8.81,10.96-7,.47-2.22.93-4.44,1.51-7.19-2.82,0-5.41-.57-7.55.16-2.07.71-3.68,2.76-5.5,4.23v-4.11h-6.96Zm138.51,82.18h7.13c0-3.76-.16-7.36.06-10.93.15-2.43.54-4.94,1.36-7.22,1.38-3.83,4.36-5.09,8.27-3.96.52.15,1.04.31,1.72.52.46-2.33.89-4.55,1.32-6.7-5.41-2.2-8.53-1.13-12.67,4.24-.09-1.57-.17-2.94-.26-4.4h-6.91v28.46Zm-173.75,157.29c-6.02-.08-10.81,4.6-10.91,10.67-.11,6.05,4.59,10.97,10.54,11.06,5.97.09,10.82-4.64,10.95-10.68.13-5.96-4.66-10.97-10.58-11.05Zm46.97,13.88c.87-.51,1.55-.8,2.1-1.24,2.17-1.74,3.05-4,2.57-6.77-.46-2.68-1.89-4.86-4.59-5.17-3.42-.39-6.92-.1-10.44-.1v20.59h4.3v-7.2c.27-.11.55-.23.82-.34,1.13,1.59,2.29,3.16,3.37,4.79,2.24,3.39,2.41,3.49,6.84,2.64-1.67-2.41-3.27-4.74-4.97-7.2Zm89.75-.03c.66-.35,1.17-.57,1.64-.87,2.51-1.58,3.69-4.54,3.01-7.49-.7-3.03-2.64-4.84-5.88-5.04-3-.19-6.02-.04-9.09-.04v20.86h4.16v-7.88c1.02.83,1.68,1.18,2.08,1.73.91,1.21,1.68,2.52,2.53,3.78,1.89,2.85,2.77,3.14,6.46,2.05-1.6-2.33-3.18-4.6-4.89-7.09Zm-77.5-253.35v28.52h6.86v-28.52h-6.86Zm-26.91,53.76v28.42h6.87v-28.42h-6.87Zm90.69,206.85c-2.39-6.46-4.77-12.7-6.98-19.01-.6-1.71-1.67-1.78-3.1-1.81-1.5-.03-2.46.23-3.04,1.88-2.03,5.79-4.24,11.52-6.37,17.28-.2.55-.29,1.14-.4,1.58,4.9,2.05,4.91-2.1,6.05-4.65,2.11,0,4.03.1,5.94-.03,1.41-.1,1.93.51,2.34,1.74,1.25,3.74,1.29,3.72,5.55,3.01Zm-52.71-5.71c-.31,5.07,6.22,7.92,11.43,5.48,2.33-1.09,3.52-2.99,3.61-5.48.09-2.48-1.21-4.28-3.42-5.28-1.59-.72-3.35-1.05-4.91-1.81-.87-.43-1.8-1.3-2.07-2.17-.15-.5.88-1.89,1.53-1.99,1.03-.17,2.82.05,3.17.71,1.29,2.41,3.11,1.38,4.85,1.36-.1-4.27-3.22-6.63-7.94-6.16-3.34.33-5.84,2.64-6.15,5.67-.31,2.99,1.32,5.21,4.68,6.33,1.43.48,2.96.76,4.28,1.45.69.36,1.52,1.5,1.41,2.13-.15.8-1.12,1.93-1.86,2.03-1.13.16-2.96-.05-3.44-.79-1.44-2.22-3.22-1.75-5.14-1.47Zm-43.5-14.95c-.13.26-.26.4-.26.54-.03,4.15-.02,8.31-.06,12.46-.03,2.7-1.27,4.08-3.6,4.12-2.33.04-3.65-1.28-3.79-3.97-.11-2.15-.04-4.31-.04-6.47,0-2.2,0-4.4,0-6.61h-4.18c0,5.05-.21,9.91.07,14.75.22,3.71,3.31,6.2,7.17,6.44,4.15.26,8.01-1.88,8.36-5.55.49-5.18.12-10.45.12-15.71h-3.79Zm-48.59,20.87v-8.41h6.79v-3.9h-6.74v-4.92h8.46v-3.53h-12.69v20.75h4.19Zm119.66,0v-17c2.04-.12,3.82-.23,5.6-.33v-3.47h-15.54v3.51c1.93.1,3.71.2,5.72.31v16.98h4.22Zm89.76-10.69c-.79-.65-1.18-1.23-1.68-1.33-3.71-.76-5.84-2.98-6.65-6.65-.1-.44-.83-.9-1.34-1-.25-.05-.87.64-.97,1.07-.81,3.54-2.85,5.77-6.47,6.55-.49.11-.85.78-1.27,1.19.4.41.75,1.07,1.22,1.18,3.54.86,5.67,3.02,6.54,6.55.11.46.84,1.13,1.21,1.09.44-.05,1.06-.71,1.16-1.2.74-3.53,2.93-5.53,6.34-6.39.54-.14,1-.54,1.9-1.05Zm-250.64,9.32c.61-.85,1.13-1.26,1.24-1.76.77-3.6,2.97-5.68,6.5-6.55.48-.12.83-.78,1.23-1.2-.42-.4-.78-1.07-1.26-1.17-3.53-.72-5.53-2.89-6.45-6.28-.15-.55-.83-.95-1.26-1.43-.39.43-1,.8-1.12,1.3-.84,3.43-2.87,5.57-6.35,6.41-.53.13-.9.87-1.35,1.33.44.37.83.96,1.33,1.08,3.46.84,5.52,2.98,6.36,6.41.13.52.58.96,1.14,1.85ZM214.32,85.54c2.7-.03,4.64-1.9,4.61-4.44-.03-2.54-2.03-4.38-4.71-4.34-2.66.03-4.68,1.96-4.65,4.44.03,2.47,2.11,4.37,4.75,4.34Zm-26.98,53.55c2.71,0,4.69-1.83,4.68-4.34,0-2.51-2-4.37-4.68-4.37-2.71,0-4.66,1.83-4.65,4.37,0,2.58,1.89,4.34,4.66,4.34Zm126.88-22.87c-.04,2.63,1.85,4.56,4.47,4.57,2.55.01,4.63-2.04,4.6-4.53-.04-2.37-2.07-4.42-4.44-4.49-2.57-.07-4.58,1.87-4.62,4.45Zm-12.88-21.89c-.02-2.49-2.14-4.51-4.67-4.44-2.41.06-4.39,2.06-4.43,4.46-.04,2.49,2.03,4.57,4.55,4.57,2.53,0,4.56-2.06,4.54-4.58Zm43.72.06c0-2.66-1.87-4.53-4.5-4.5-2.59.02-4.49,2-4.43,4.62.05,2.49,1.93,4.35,4.43,4.38,2.62.03,4.52-1.86,4.51-4.5Zm-127.2,246.21h-10.39v3.49h10.39v-3.49Z"></path><path class="cls-1" d="m185.82,252.86c-1.62.89-2.48,1.64-3.46,1.86-5.25,1.18-8.87,4.15-10.64,9.27-.26.75-.18,1.67-.59,2.29-.54.83-1.4,1.44-2.13,2.15-.69-.74-1.8-1.39-1.99-2.24-.9-4.11-2.81-7.5-6.5-9.59-1.63-.92-3.61-1.21-5.32-2.01-.8-.37-1.85-1.29-1.85-1.96,0-.71,1.03-1.89,1.78-2.04,6.74-1.33,10.64-5.3,11.96-12.02.13-.68,1.29-1.69,1.87-1.63.77.08,1.94.98,2.08,1.69,1.32,6.75,5.31,10.64,12.02,11.97.78.16,1.41,1.11,2.77,2.26Z"></path><path class="cls-1" d="m265.55,253c-.75.55-1.44,1.42-2.27,1.59-6.62,1.33-10.52,5.23-11.86,11.86-.15.76-1.28,1.83-1.96,1.83-.72,0-1.95-1.01-2.08-1.74-1.25-6.8-5.29-10.63-11.99-11.99-.69-.14-1.75-1.54-1.6-2.07.23-.82,1.26-1.82,2.1-1.99,5.61-1.16,9.27-4.38,11.01-9.8.19-.6.07-1.39.41-1.84.59-.78,1.38-1.77,2.21-1.91.54-.09,1.54,1.07,1.93,1.86,1,2.05,1.51,4.38,2.72,6.28,1.92,3.02,4.95,4.6,8.48,5.32,1.05.22,1.97,1.07,2.95,1.64l-.06.95Z"></path><path class="cls-1" d="m105.36,252.59c-1.33.97-2.01,1.84-2.83,2.01-6.61,1.35-10.54,5.2-11.81,11.87-.14.76-1.31,1.82-2.01,1.83-.7,0-1.91-1.03-2.05-1.77-1.25-6.68-5.2-10.51-11.77-11.94-.77-.17-1.94-1.37-1.85-1.89.15-.83,1.12-1.99,1.91-2.16,6.52-1.36,10.36-5.19,11.68-11.73.15-.77,1.34-1.96,1.9-1.88.83.11,2.03,1.08,2.19,1.87,1.33,6.53,5.12,10.41,11.68,11.71.88.17,1.61,1.1,2.96,2.08Z"></path><path class="cls-1" d="m346.33,252.45c-1.16,1-1.77,1.96-2.55,2.12-6.68,1.36-10.74,5.17-11.97,11.99-.13.72-1.38,1.74-2.1,1.73-.68-.01-1.78-1.11-1.94-1.88-1.35-6.63-5.28-10.49-11.88-11.84-.76-.16-1.83-1.29-1.83-1.97,0-.7,1.05-1.87,1.8-2.02,6.73-1.34,10.67-5.27,11.93-12.04.13-.68,1.3-1.69,1.89-1.62.78.08,1.97.98,2.1,1.69,1.27,6.78,5.27,10.66,11.99,11.96.75.15,1.36.98,2.55,1.88Z"></path><path class="cls-1" d="m211.79,150.92c4.57-.04,8.21,3.53,8.27,8.12.06,4.74-3.54,8.49-8.17,8.5-4.46.01-7.96-3.68-7.97-8.41,0-4.61,3.39-8.16,7.86-8.2Z"></path><path class="cls-1" d="m156.54,105.69c-.03-4.69,3.44-8.37,7.92-8.39,4.48-.03,8.21,3.63,8.3,8.12.08,4.62-3.61,8.52-8.13,8.57-4.4.05-8.06-3.71-8.09-8.3Z"></path><path class="cls-1" d="m129.66,150.92c4.54.03,8.18,3.71,8.18,8.26,0,4.7-3.74,8.44-8.34,8.35-4.47-.09-8.02-3.91-7.92-8.53.1-4.53,3.68-8.11,8.08-8.08Z"></path><path class="cls-1" d="m256.34,159.28c-.05,4.63-3.67,8.28-8.19,8.25-4.45-.02-8.14-3.86-8.09-8.4.05-4.63,3.7-8.27,8.21-8.22,4.53.05,8.12,3.77,8.07,8.36Z"></path><path class="cls-1" d="m312.45,159.13c.02,4.83-3.25,8.33-7.85,8.4-4.57.07-8.01-3.45-8.04-8.23-.03-4.82,3.29-8.37,7.86-8.39,4.63-.02,8.02,3.44,8.04,8.22Z"></path><path class="cls-1" d="m157.74,341.72c-.06,3.8-2.87,6.75-6.37,6.68-3.53-.06-6.27-3.06-6.25-6.84.02-3.75,2.82-6.79,6.28-6.83,3.58-.03,6.4,3.07,6.34,6.98Z"></path><path class="cls-1" d="m192.53,341.05v-6.11c2.14.08,4.48-.86,5.89,1.38.52.83.57,2.52.05,3.32-1.41,2.2-3.76,1.31-5.94,1.41Z"></path><path class="cls-1" d="m282.27,334.98c2.15,0,4.49-.85,5.93,1.33.53.8.55,2.51.04,3.31-1.41,2.19-3.76,1.43-5.96,1.35v-5.98Z"></path><path class="cls-1" d="m267.1,343.15h-4.99c.8-2.38,1.56-4.65,2.5-7.47.94,2.81,1.68,5.05,2.49,7.47Z"></path></svg> 